<?xml version="1.0" encoding="UTF-8"?>
<svg id="Capa_1" data-name="Capa 1" xmlns="http://www.w3.org/2000/svg" viewBox="850 150 900 600">
  <defs>
    <style>
      .cls-1 {
        fill: #fff;
      }
    </style>
  </defs>
  <path class="cls-1" d="M1342.57,382.79c30.34-58.86,91.48-97.45,159.87-97.45,48.15,0,95.08,19.79,128.77,54.31l12.64,12.95,38.08-71.28-7.72-6.94c-47.28-42.52-108.28-65.94-171.77-65.94-48.78,0-96.28,13.8-137.36,39.92-24.35,15.48-45.78,34.84-63.56,57.19l41.06,77.25Z"/>
  <path class="cls-1" d="M1502.44,721.96c-85.03,0-165.54-43.23-213.05-113.6,0,0-15.63-26.29-18.54-32.33l-116.89-220.14-194.51,366.07h-86.93l281.44-530.04,193.24,363.92c32.26,55.04,91.72,89.22,155.24,89.22,49.71,0,97.69-20.88,131.62-57.29l12.64-13.57,38.33,71.76-7.45,6.95c-47.75,44.52-109.95,69.04-175.15,69.04Z"/>
</svg>