<?xml version="1.0" encoding="UTF-8"?>
<svg id="Capa_1" data-name="Capa 1" xmlns="http://www.w3.org/2000/svg" viewBox="0 0 800.36 560.83">
  <defs>
    <style>
      .cls-1 {
        fill: #19314d;
      }

      .cls-2 {
        fill: #00273a;
      }

      .cls-3 {
        fill: #fff;
      }
    </style>
  </defs>
  <g>
    <path class="cls-2" d="M127.03,13.25c2.11-4.09,6.35-6.77,11.1-6.77,3.34,0,6.6,1.37,8.94,3.77l.88.9,2.64-4.95-.54-.48c-3.28-2.95-7.52-4.58-11.93-4.58-3.39,0-6.69.96-9.54,2.77-1.69,1.07-3.18,2.42-4.41,3.97l2.85,5.36Z"/>
    <path class="cls-2" d="M138.13,36.8c-5.9,0-11.49-3-14.79-7.89,0,0-1.09-1.83-1.29-2.25l-8.12-15.28-13.51,25.42h-6.04L113.94,0l13.42,25.27c2.24,3.82,6.37,6.19,10.78,6.19,3.45,0,6.78-1.45,9.14-3.98l.88-.94,2.66,4.98-.52.48c-3.32,3.09-7.63,4.79-12.16,4.79Z"/>
  </g>
  <g>
    <path class="cls-1" d="M163.06,62.38v7.64h-4.27v-22.68c.16-.05.33-.16.51-.16,3.18,0,6.37-.11,9.54.07,4.43.26,7.11,3.17,7.16,7.45.05,4.15-2.62,7.21-6.87,7.65-1.92.2-3.88.03-6.06.03ZM163.11,59.64c2.88.05,5.73.67,7.64-2.11,1.03-1.49.92-4.42-.21-5.79-2.03-2.47-4.77-1.65-7.43-1.75v9.65Z"/>
    <path class="cls-1" d="M227.02,70.12c-1.27,0-2.4-.04-3.53.02-.79.04-1.21-.25-1.49-.98-.6-1.55-1.22-3.09-1.94-4.59-.19-.39-.79-.82-1.21-.83-2.52-.07-5.03-.06-7.55.02-.39.01-.94.4-1.11.76-.66,1.37-1.27,2.77-1.74,4.2-.35,1.08-.89,1.57-2.04,1.4-.6-.09-1.21-.02-2.04-.02.9-2.15,1.69-4.12,2.54-6.07,2.32-5.36,4.69-10.69,6.96-16.06.44-1.03,1.17-.92,1.96-.94.76-.02,1.43-.06,1.83.9,3.07,7.2,6.2,14.38,9.3,21.57.05.12.03.27.07.62ZM215.08,52.51c-1.22,2.87-2.36,5.54-3.54,8.32h7.03c-1.17-2.8-2.28-5.44-3.48-8.32Z"/>
    <path class="cls-1" d="M155.89,70.14c-1.47,0-2.75.07-4.01-.04-.38-.03-.87-.49-1.05-.88-.67-1.46-1.26-2.97-1.83-4.48-.27-.71-.64-1.05-1.45-1.03-2.52.05-5.04-.01-7.55.07-.41.01-.98.47-1.17.87-.6,1.24-1.12,2.52-1.53,3.83-.38,1.2-.96,1.89-2.33,1.66-.55-.09-1.12-.02-1.8-.02.08-.39.1-.66.2-.9,3.04-7.01,6.13-13.99,9.11-21.03.61-1.45,1.73-1.12,2.71-1.08.45.02,1.07.63,1.29,1.12,2.94,6.69,5.82,13.41,8.72,20.12.22.51.41,1.04.69,1.78ZM147.4,60.85c-1.23-2.91-2.35-5.54-3.61-8.5-1.24,2.99-2.35,5.67-3.51,8.5h7.12Z"/>
    <path class="cls-1" d="M130.76,52.57c-1.1-.61-1.99-1.14-2.92-1.61-2.05-1.03-4.24-1.44-6.51-1.07-4.06.67-6.5,3.34-6.96,7.52-.63,5.67,2.68,9.94,8.22,10.09,2.04.05,4.12-.87,6.15-1.45.79-.23,1.5-.76,2.47-1.28,0,1.15.04,2.12-.02,3.08-.02.27-.26.63-.5.77-4.69,2.79-13.41,3.3-18.12-1.81-3.4-3.69-3.67-8.09-2.17-12.54,1.43-4.25,4.86-6.45,9.13-7.3,3.53-.7,6.98-.28,10.32,1.15,1.05.45,1.47,1.03,1.2,2.15-.16.68-.18,1.4-.29,2.3Z"/>
    <path class="cls-1" d="M194.64,49.96h-7.35v-2.77h18.97c.07.2.16.37.17.55q.16,2.26-2.13,2.28c-1.7,0-3.4,0-5.26,0v19.97h-4.4v-20.03Z"/>
    <path class="cls-1" d="M230.38,47.17h4.19v19.99c1.21,0,2.28,0,3.35,0,1.95-.01,3.9.05,5.84-.07,1.34-.09,1.41.58,1.44,1.62.04,1.1-.27,1.48-1.43,1.46-4.41-.07-8.83-.03-13.39-.03v-22.97Z"/>
    <path class="cls-1" d="M183.84,70.06h-4.19v-22.95c1.17,0,2.35-.07,3.5.05.27.03.67.7.68,1.08.05,2.56,0,5.13,0,7.69,0,4.13,0,8.26,0,12.4,0,.51,0,1.03,0,1.72Z"/>
    <path class="cls-1" d="M26.63,70.22v-23.2c4.99-.07,9.97-.96,14.73,1.17,4.41,1.98,6.65,5.91,6.41,11.18-.22,4.86-3.03,8.75-7.4,10.28-2.84.99-10.18,1.31-13.73.57ZM30.94,58.73h0c0,1.74,0,3.48,0,5.22,0,3.91.01,3.95,3.96,3.73,3.53-.2,6.3-1.74,7.5-5.18,1.26-3.61,1.18-7.13-1.69-10.13-2.35-2.47-5.37-2.56-8.46-2.52-1,.01-1.36.33-1.33,1.34.06,2.51.02,5.03.02,7.54Z"/>
    <path class="cls-1" d="M105.5,70.25c-1.69.51-2.81.1-3.91-1.19-4.23-4.96-8.59-9.81-13.1-14.94v16.16h-3.23v-23.15c1.53-.47,2.77-.28,3.93,1.08,3.92,4.59,7.95,9.1,11.93,13.64.31.35.63.68,1.17,1.28v-16.03h3.21v23.16Z"/>
    <path class="cls-1" d="M23.32,70.43c-1.31,0-2.57.09-3.81-.04-.48-.05-1.13-.49-1.34-.93-.72-1.52-1.23-3.15-1.94-4.68-.18-.39-.79-.82-1.22-.83-2.61-.08-5.22-.08-7.83,0-.41.01-.99.46-1.19.85-.66,1.34-1.29,2.71-1.74,4.13-.37,1.19-1.02,1.62-2.21,1.48-.6-.07-1.22-.01-2.06-.01,1.15-2.63,2.2-5.05,3.26-7.46,2.21-5.04,4.47-10.05,6.61-15.12.45-1.07,1.19-.94,1.98-.95.74-.02,1.48-.2,1.91.81,3.15,7.42,6.36,14.81,9.54,22.21.03.08,0,.19,0,.55ZM7.51,61h7.23c-1.21-2.86-2.36-5.57-3.64-8.61-1.28,3.07-2.4,5.77-3.59,8.61Z"/>
    <path class="cls-1" d="M60.5,64.77c2.04-5.07,3.95-9.81,5.86-14.55.11-.27.2-.54.31-.81,1.1-2.66,1.25-2.74,4.53-2.32-.31.82-.59,1.61-.91,2.38-2.8,6.63-5.63,13.25-8.42,19.89-.33.78-.63,1.35-1.63,1.24-.97-.11-1.88.16-2.43-1.18-3.05-7.42-6.22-14.78-9.45-22.39,1.62,0,3.13-.07,4.63.06.32.03.66.75.85,1.22,2.19,5.36,4.35,10.74,6.66,16.47Z"/>
    <path class="cls-1" d="M74.74,47.06h4.18v23.25h-4.18v-23.25Z"/>
  </g>
  <g>
    <path class="cls-1" d="M22.32,88.9v-7.89h.43v7.89h-.43Z"/>
    <path class="cls-1" d="M35.17,88v-6.98h.43v7.89h-.26l-5.23-6.91v6.91h-.43v-7.89h.21l5.28,6.98Z"/>
    <path class="cls-1" d="M44.81,88.17l2.77-7.15h.44l-3.1,7.89h-.21l-3.14-7.89h.44l2.81,7.15Z"/>
    <path class="cls-1" d="M58.74,88.9h-4.73v-7.89h4.69v.4h-4.26v3.31h3.99v.4h-3.99v3.4h4.3v.4Z"/>
    <path class="cls-1" d="M66.89,89.03c-.57,0-1.08-.14-1.53-.42s-.8-.69-1.03-1.22l.36-.18c.43.95,1.15,1.43,2.17,1.43.59,0,1.07-.16,1.44-.48.38-.33.58-.74.58-1.24,0-.33-.09-.62-.28-.85-.19-.23-.48-.45-.9-.64-.23-.11-.51-.23-.84-.36l-.67-.28c-.97-.43-1.45-1.06-1.45-1.9,0-.58.2-1.06.61-1.44.41-.38.95-.57,1.6-.57.93,0,1.66.39,2.19,1.17l-.33.23c-.46-.68-1.08-1.01-1.85-1.01-.53,0-.96.15-1.29.45s-.5.69-.5,1.16c0,.32.09.6.26.83.17.23.47.46.88.66.13.06.4.18.8.35.38.15.65.26.82.34.92.43,1.38,1.05,1.38,1.85,0,.62-.23,1.13-.69,1.53-.46.39-1.03.59-1.72.59Z"/>
    <path class="cls-1" d="M77,88.9v-7.5h-2.42v-.4h5.26v.4h-2.41v7.5h-.43Z"/>
    <path class="cls-1" d="M86.22,88.9h-.42v-7.89h.19l3.48,5.13,3.45-5.13h.2v7.89h-.42v-6.84l-3.18,4.73h-.11l-3.2-4.72v6.83Z"/>
    <path class="cls-1" d="M104.79,88.9h-4.73v-7.89h4.69v.4h-4.26v3.31h3.99v.4h-3.99v3.4h4.3v.4Z"/>
    <path class="cls-1" d="M116.64,88v-6.98h.43v7.89h-.26l-5.23-6.91v6.91h-.43v-7.89h.21l5.28,6.98Z"/>
    <path class="cls-1" d="M125.46,88.9v-7.5h-2.42v-.4h5.26v.4h-2.41v7.5h-.43Z"/>
    <path class="cls-1" d="M146.44,88.9h-.46l-.99-2.58h-3.53l-1,2.58h-.46l3.1-7.89h.27l3.09,7.89ZM144.85,85.92l-1.63-4.2-1.63,4.2h3.27Z"/>
    <path class="cls-1" d="M154.95,88.9h-2.51v-7.89h2.57c1.13,0,2.02.36,2.67,1.07.66.72.98,1.68.98,2.89s-.33,2.17-.99,2.87c-.66.71-1.57,1.06-2.72,1.06ZM152.87,81.41v7.1h2.06c1.04,0,1.85-.31,2.43-.94.58-.63.88-1.49.88-2.59s-.29-1.97-.85-2.61c-.57-.64-1.35-.96-2.35-.96h-2.17Z"/>
    <path class="cls-1" d="M167.2,88.17l2.77-7.15h.44l-3.1,7.89h-.21l-3.14-7.89h.44l2.81,7.15Z"/>
    <path class="cls-1" d="M176.39,88.9v-7.89h.43v7.89h-.43Z"/>
    <path class="cls-1" d="M185.56,89.03c-.57,0-1.08-.14-1.53-.42s-.8-.69-1.03-1.22l.36-.18c.43.95,1.15,1.43,2.17,1.43.59,0,1.07-.16,1.44-.48.38-.33.58-.74.58-1.24,0-.33-.09-.62-.28-.85-.19-.23-.48-.45-.9-.64-.23-.11-.51-.23-.84-.36l-.67-.28c-.97-.43-1.45-1.06-1.45-1.9,0-.58.2-1.06.61-1.44.41-.38.95-.57,1.6-.57.93,0,1.66.39,2.19,1.17l-.33.23c-.46-.68-1.08-1.01-1.85-1.01-.53,0-.96.15-1.29.45-.33.3-.5.69-.5,1.16,0,.32.09.6.26.83.17.23.47.46.88.66.13.06.39.18.8.35.38.15.65.26.82.34.92.43,1.38,1.05,1.38,1.85,0,.62-.23,1.13-.69,1.53-.46.39-1.03.59-1.72.59Z"/>
    <path class="cls-1" d="M200.62,87.84c-.78.8-1.73,1.2-2.86,1.2s-2.08-.4-2.87-1.2c-.78-.8-1.17-1.77-1.17-2.88s.39-2.08,1.17-2.88c.79-.8,1.75-1.2,2.87-1.2s2.09.4,2.86,1.2c.79.8,1.19,1.76,1.19,2.88s-.4,2.09-1.19,2.88ZM195.2,87.56c.71.72,1.56,1.08,2.56,1.08s1.86-.36,2.56-1.08c.7-.71,1.06-1.58,1.06-2.61s-.35-1.89-1.06-2.61c-.71-.72-1.56-1.08-2.56-1.08s-1.86.36-2.56,1.08c-.71.71-1.06,1.58-1.06,2.61s.35,1.89,1.06,2.61Z"/>
    <path class="cls-1" d="M210.93,85.47l2.02,3.44h-.49l-1.96-3.4s-.11.01-.24.01h-1.66v3.38h-.43v-7.89h2.22c.82,0,1.44.22,1.87.66.43.43.65.96.65,1.59,0,.53-.17,1-.51,1.41-.33.41-.82.67-1.47.79ZM208.6,81.41v3.72h1.68c.68,0,1.22-.17,1.62-.51.39-.34.59-.79.59-1.36s-.19-1.01-.57-1.34c-.38-.33-.89-.5-1.52-.5h-1.79Z"/>
    <path class="cls-1" d="M223.62,81.01h.47l-2.65,4.58v3.31h-.43v-3.31l-2.64-4.58h.47l2.38,4.21,2.39-4.21Z"/>
  </g>
  <g>
    <path class="cls-3" d="M445.48,333.26c6.33-12.27,19.07-20.32,33.33-20.32,10.04,0,19.83,4.13,26.85,11.32l2.64,2.7,7.94-14.86-1.61-1.45c-9.86-8.87-22.58-13.75-35.82-13.75-10.17,0-20.08,2.88-28.64,8.32-5.08,3.23-9.55,7.27-13.25,11.92l8.56,16.11Z"/>
    <path class="cls-3" d="M478.81,403.98c-17.73,0-34.52-9.01-44.42-23.69,0,0-3.26-5.48-3.87-6.74l-24.37-45.9-40.56,76.33h-18.12l58.68-110.52,40.29,75.88c6.73,11.48,19.12,18.6,32.37,18.6,10.37,0,20.37-4.35,27.44-11.95l2.64-2.83,7.99,14.96-1.55,1.45c-9.96,9.28-22.93,14.4-36.52,14.4Z"/>
  </g>
  <g>
    <path class="cls-3" d="M553.69,480.79v22.93h-12.83v-68.1c.49-.16,1.01-.49,1.52-.49,9.55.02,19.12-.33,28.64.22,13.29.77,21.36,9.51,21.51,22.38.15,12.45-7.86,21.65-20.64,22.96-5.77.59-11.65.1-18.21.1ZM553.84,472.57c8.64.16,17.2,2.02,22.95-6.33,3.09-4.49,2.78-13.26-.62-17.4-6.09-7.41-14.32-4.97-22.33-5.26v28.98Z"/>
    <path class="cls-3" d="M745.76,504.04c-3.8,0-7.21-.13-10.61.05-2.37.12-3.63-.75-4.48-2.96-1.79-4.65-3.66-9.29-5.84-13.77-.57-1.18-2.37-2.45-3.64-2.49-7.55-.21-15.12-.17-22.67.06-1.17.04-2.82,1.21-3.34,2.29-1.97,4.1-3.81,8.3-5.22,12.62-1.06,3.24-2.67,4.72-6.14,4.21-1.79-.26-3.65-.05-6.11-.05,2.7-6.46,5.09-12.37,7.62-18.23,6.96-16.08,14.07-32.1,20.91-48.24,1.31-3.09,3.5-2.77,5.88-2.82,2.29-.05,4.28-.19,5.51,2.69,9.21,21.63,18.61,43.18,27.93,64.77.16.36.1.82.2,1.86ZM709.9,451.16c-3.68,8.63-7.08,16.63-10.65,24.99h21.1c-3.52-8.4-6.83-16.33-10.45-24.99Z"/>
    <path class="cls-3" d="M532.14,504.1c-4.42,0-8.25.21-12.03-.12-1.15-.1-2.63-1.48-3.16-2.63-2.02-4.4-3.79-8.91-5.5-13.44-.8-2.12-1.92-3.15-4.37-3.09-7.56.16-15.13-.04-22.68.21-1.23.04-2.93,1.41-3.51,2.6-1.79,3.71-3.35,7.57-4.6,11.5-1.14,3.59-2.89,5.67-6.99,4.98-1.64-.28-3.37-.05-5.39-.05.25-1.16.3-1.99.61-2.71,9.13-21.04,18.41-42.02,27.35-63.15,1.85-4.36,5.2-3.36,8.15-3.26,1.35.05,3.22,1.91,3.86,3.38,8.83,20.1,17.49,40.27,26.18,60.42.66,1.54,1.22,3.12,2.08,5.36ZM506.66,476.19c-3.7-8.73-7.06-16.64-10.83-25.52-3.71,8.98-7.04,17.04-10.55,25.52h21.38Z"/>
    <path class="cls-3" d="M456.69,451.34c-3.3-1.82-5.98-3.42-8.76-4.82-6.16-3.1-12.73-4.32-19.54-3.2-12.2,2-19.52,10.02-20.91,22.57-1.89,17.01,8.04,29.84,24.69,30.29,6.12.16,12.38-2.6,18.47-4.36,2.39-.69,4.51-2.3,7.43-3.84,0,3.44.11,6.36-.07,9.25-.05.81-.77,1.88-1.5,2.31-14.07,8.38-40.27,9.91-54.42-5.44-10.22-11.09-11.01-24.28-6.51-37.67,4.28-12.76,14.59-19.36,27.4-21.91,10.61-2.12,20.97-.84,30.98,3.46,3.15,1.35,4.4,3.08,3.59,6.46-.49,2.05-.54,4.22-.86,6.9Z"/>
    <path class="cls-3" d="M648.51,443.5h-22.07v-8.33h56.96c.2.61.48,1.13.51,1.65q.47,6.79-6.41,6.84c-5.11.03-10.21,0-15.79,0v59.98h-13.21v-60.15Z"/>
    <path class="cls-3" d="M755.84,435.13h12.58v60.05c3.63,0,6.85.02,10.07,0,5.85-.03,11.71.15,17.54-.22,4.03-.26,4.22,1.75,4.33,4.86.11,3.31-.81,4.44-4.29,4.38-13.25-.2-26.5-.08-40.22-.08v-68.99Z"/>
    <path class="cls-3" d="M616.08,503.87h-12.58v-68.91c3.53,0,7.05-.21,10.51.15.82.09,2.02,2.09,2.05,3.24.16,7.7.03,15.4.02,23.1-.01,12.41,0,24.82,0,37.23,0,1.54,0,3.08,0,5.18Z"/>
    <path class="cls-3" d="M143.98,504.35v-69.67c14.99-.21,29.93-2.89,44.24,3.52,13.26,5.94,19.97,17.75,19.24,33.56-.67,14.59-9.09,26.28-22.23,30.88-8.52,2.98-30.56,3.94-41.25,1.71ZM156.92,469.82h.03c0,5.23,0,10.45,0,15.68.02,11.74.03,11.87,11.88,11.2,10.59-.6,18.92-5.23,22.53-15.57,3.77-10.83,3.54-21.41-5.08-30.43-7.07-7.41-16.13-7.68-25.42-7.56-2.99.04-4.07.98-4,4.03.18,7.55.06,15.1.06,22.65Z"/>
    <path class="cls-3" d="M380.83,504.41c-5.08,1.52-8.44.31-11.75-3.57-12.7-14.89-25.78-29.47-39.34-44.85v48.52h-9.71v-69.51c4.59-1.4,8.31-.84,11.79,3.23,11.77,13.8,23.86,27.33,35.83,40.95.92,1.04,1.88,2.05,3.51,3.83v-48.14h9.65v69.54Z"/>
    <path class="cls-3" d="M134.02,504.98c-3.93,0-7.72.26-11.43-.13-1.45-.15-3.39-1.47-4.01-2.78-2.16-4.58-3.69-9.45-5.81-14.05-.55-1.18-2.39-2.45-3.67-2.49-7.83-.24-15.67-.24-23.5-.02-1.24.04-2.97,1.38-3.56,2.57-1.99,4.02-3.89,8.14-5.22,12.41-1.12,3.57-3.05,4.88-6.63,4.45-1.81-.22-3.67-.04-6.18-.04,3.45-7.88,6.61-15.15,9.8-22.41,6.64-15.13,13.42-30.19,19.86-45.41,1.36-3.22,3.59-2.81,5.95-2.86,2.23-.05,4.46-.59,5.74,2.42,9.47,22.27,19.1,44.47,28.66,66.7.1.24.01.56.01,1.64ZM86.56,476.64h21.71c-3.63-8.58-7.07-16.72-10.94-25.87-3.84,9.22-7.21,17.31-10.77,25.87Z"/>
    <path class="cls-3" d="M245.68,487.98c6.14-15.23,11.87-29.46,17.6-43.68.33-.81.61-1.63.95-2.44,3.29-7.97,3.76-8.22,13.6-6.97-.94,2.46-1.76,4.84-2.74,7.14-8.42,19.91-16.9,39.8-25.28,59.73-.98,2.33-1.89,4.06-4.91,3.72-2.91-.32-5.64.49-7.3-3.56-9.15-22.27-18.69-44.39-28.38-67.23,4.85,0,9.41-.22,13.91.17.96.08,1.98,2.26,2.55,3.65,6.57,16.11,13.06,32.25,20,49.45Z"/>
    <path class="cls-3" d="M288.46,434.8h12.57v69.83h-12.57v-69.83Z"/>
  </g>
  <g>
    <path class="cls-3" d="M131.03,560.44v-23.7h1.28v23.7h-1.28Z"/>
    <path class="cls-3" d="M169.61,557.72v-20.97h1.28v23.7h-.77l-15.71-20.75v20.75h-1.28v-23.7h.64l15.84,20.97Z"/>
    <path class="cls-3" d="M198.57,558.23l8.31-21.48h1.32l-9.3,23.7h-.64l-9.43-23.7h1.32l8.43,21.48Z"/>
    <path class="cls-3" d="M240.38,560.44h-14.21v-23.7h14.08v1.19h-12.8v9.94h11.99v1.19h-11.99v10.2h12.92v1.19Z"/>
    <path class="cls-3" d="M264.88,560.83c-1.71,0-3.24-.42-4.6-1.27s-2.39-2.07-3.09-3.67l1.09-.55c1.28,2.87,3.45,4.3,6.51,4.3,1.77,0,3.22-.48,4.33-1.44,1.16-.99,1.73-2.23,1.73-3.72,0-1-.28-1.86-.83-2.57-.56-.7-1.45-1.35-2.7-1.92-.68-.32-1.53-.68-2.53-1.09l-2.02-.83c-2.91-1.28-4.36-3.18-4.36-5.71,0-1.75.61-3.2,1.83-4.33,1.24-1.13,2.84-1.7,4.81-1.7,2.8,0,4.99,1.18,6.57,3.53l-.99.7c-1.39-2.03-3.24-3.05-5.55-3.05-1.58,0-2.88.45-3.88,1.35s-1.51,2.06-1.51,3.5c0,.96.26,1.79.79,2.5.52.7,1.41,1.37,2.65,1.99.38.19,1.19.54,2.4,1.06,1.13.45,1.96.79,2.47,1.03,2.76,1.31,4.14,3.16,4.14,5.55,0,1.86-.7,3.39-2.09,4.59-1.37,1.18-3.09,1.76-5.16,1.76Z"/>
    <path class="cls-3" d="M295.22,560.44v-22.51h-7.28v-1.19h15.81v1.19h-7.25v22.51h-1.28Z"/>
    <path class="cls-3" d="M322.93,560.44h-1.25v-23.7h.58l10.45,15.39,10.36-15.39h.61v23.7h-1.25v-20.56l-9.56,14.21h-.32l-9.62-14.17v20.52Z"/>
    <path class="cls-3" d="M378.7,560.44h-14.21v-23.7h14.08v1.19h-12.8v9.94h11.99v1.19h-11.99v10.2h12.92v1.19Z"/>
    <path class="cls-3" d="M414.26,557.72v-20.97h1.28v23.7h-.77l-15.71-20.75v20.75h-1.28v-23.7h.64l15.84,20.97Z"/>
    <path class="cls-3" d="M440.75,560.44v-22.51h-7.28v-1.19h15.81v1.19h-7.25v22.51h-1.28Z"/>
    <path class="cls-3" d="M503.76,560.44h-1.38l-2.98-7.76h-10.61l-3.01,7.76h-1.38l9.3-23.7h.8l9.27,23.7ZM498.99,551.5l-4.91-12.6-4.91,12.6h9.81Z"/>
    <path class="cls-3" d="M529.32,560.44h-7.54v-23.7h7.73c3.4,0,6.07,1.07,8.01,3.21,1.97,2.16,2.95,5.06,2.95,8.69s-.99,6.51-2.98,8.62c-1.99,2.12-4.72,3.18-8.18,3.18ZM523.07,537.93v21.32h6.19c3.12,0,5.56-.94,7.31-2.82,1.75-1.88,2.63-4.48,2.63-7.79s-.86-5.92-2.57-7.82c-1.71-1.92-4.06-2.89-7.05-2.89h-6.51Z"/>
    <path class="cls-3" d="M566.11,558.23l8.31-21.48h1.31l-9.3,23.7h-.64l-9.43-23.7h1.32l8.43,21.48Z"/>
    <path class="cls-3" d="M593.71,560.44v-23.7h1.28v23.7h-1.28Z"/>
    <path class="cls-3" d="M621.23,560.83c-1.71,0-3.24-.42-4.6-1.27s-2.39-2.07-3.09-3.67l1.09-.55c1.28,2.87,3.45,4.3,6.51,4.3,1.77,0,3.22-.48,4.33-1.44,1.16-.99,1.73-2.23,1.73-3.72,0-1-.28-1.86-.83-2.57-.56-.7-1.45-1.35-2.7-1.92-.68-.32-1.53-.68-2.53-1.09l-2.02-.83c-2.91-1.28-4.36-3.18-4.36-5.71,0-1.75.61-3.2,1.83-4.33,1.24-1.13,2.84-1.7,4.81-1.7,2.8,0,4.99,1.18,6.57,3.53l-.99.7c-1.39-2.03-3.24-3.05-5.55-3.05-1.58,0-2.88.45-3.88,1.35-1,.9-1.51,2.06-1.51,3.5,0,.96.26,1.79.79,2.5.52.7,1.41,1.37,2.65,1.99.38.19,1.18.54,2.4,1.06,1.13.45,1.96.79,2.47,1.03,2.76,1.31,4.14,3.16,4.14,5.55,0,1.86-.7,3.39-2.09,4.59-1.37,1.18-3.09,1.76-5.16,1.76Z"/>
    <path class="cls-3" d="M666.48,557.24c-2.33,2.39-5.2,3.59-8.6,3.59s-6.25-1.2-8.62-3.59c-2.35-2.42-3.53-5.3-3.53-8.66s1.18-6.24,3.53-8.66c2.37-2.4,5.25-3.59,8.62-3.59s6.26,1.2,8.6,3.59c2.37,2.39,3.56,5.28,3.56,8.66s-1.19,6.26-3.56,8.66ZM650.19,556.4c2.12,2.16,4.68,3.24,7.7,3.24s5.58-1.08,7.7-3.24c2.11-2.14,3.17-4.75,3.17-7.82s-1.06-5.69-3.17-7.82c-2.12-2.16-4.68-3.24-7.7-3.24s-5.58,1.08-7.7,3.24c-2.12,2.14-3.18,4.75-3.18,7.82s1.06,5.67,3.18,7.82Z"/>
    <path class="cls-3" d="M697.42,550.12l6.06,10.33h-1.48l-5.9-10.2c-.11.02-.34.03-.71.03h-4.97v10.16h-1.28v-23.7h6.67c2.46,0,4.33.66,5.61,1.99,1.31,1.31,1.96,2.9,1.96,4.78,0,1.58-.51,2.99-1.54,4.23-.98,1.22-2.46,2.01-4.43,2.37ZM690.43,537.93v11.16h5.04c2.05,0,3.67-.51,4.86-1.54,1.18-1.03,1.78-2.38,1.78-4.07s-.57-3.04-1.72-4.04c-1.14-1.01-2.67-1.51-4.57-1.51h-5.39Z"/>
    <path class="cls-3" d="M735.56,536.75h1.41l-7.95,13.76v9.94h-1.28v-9.94l-7.92-13.76h1.41l7.15,12.63,7.19-12.63Z"/>
  </g>
</svg>